<svg width="24" height="24" viewBox="0 0 24 24" xmlns="http://www.w3.org/2000/svg">
    <defs>
        <clipPath id="ro6bjnk70a">
            <path d="M916 0v514H0V0h916z"/>
        </clipPath>
        <clipPath id="qwto1gcfnb">
            <path d="M17 0a1 1 0 0 1 1 1v3.757l-2 2V2H2v16h14v-2.758l2-2V19a1 1 0 0 1-1 1H1a1 1 0 0 1-1-1V1a1 1 0 0 1 1-1h16zm1.778 6.808 1.414 1.414L12.414 16l-1.416-.002.002-1.412 7.778-7.778zM10 10v2H5v-2h5zm3-4v2H5V6h8z"/>
        </clipPath>
    </defs>
    <g clip-path="url(#ro6bjnk70a)" transform="translate(-755 -273)">
        <g clip-path="url(#qwto1gcfnb)" transform="translate(758 275)">
            <path fill="#FFF" d="M0 0h20.192v20H0V0z"/>
        </g>
    </g>
</svg>
