<svg width="24" height="24" viewBox="0 0 24 24" xmlns="http://www.w3.org/2000/svg">
    <defs>
        <clipPath id="mk74xsvgaa">
            <path d="M916 0v514H0V0h916z"/>
        </clipPath>
        <clipPath id="pthwonsmkb">
            <path d="M7 0v2h6V0h2v2h4a1 1 0 0 1 1 1v16a1 1 0 0 1-1 1H1a1 1 0 0 1-1-1V3a1 1 0 0 1 1-1h4V0h2zm11 10H2v8h16v-8zM5 4H2v4h16V4h-3v2h-2V4H7v2H5V4z"/>
        </clipPath>
    </defs>
    <g clip-path="url(#mk74xsvgaa)" transform="translate(-267 -106)">
        <g clip-path="url(#pthwonsmkb)" transform="translate(269 107)">
            <path fill="#BBB" d="M0 0h20v20H0V0z"/>
        </g>
    </g>
</svg>
