<?xml version="1.0" encoding="UTF-8"?>
<svg width="24px" height="24px" viewBox="0 0 24 24" version="1.1" xmlns="http://www.w3.org/2000/svg" xmlns:xlink="http://www.w3.org/1999/xlink">
    <title>Group</title>
    <g id="Design" stroke="none" stroke-width="1" fill="none" fill-rule="evenodd">
        <g id="Annotation---step-2" transform="translate(-1364.000000, -384.000000)">
            <g id="Group-10" transform="translate(1352.000000, 272.000000)">
                <g id="Group" transform="translate(12.000000, 112.000000)">
                    <polygon id="Path" points="0 0 24 0 24 24 0 24"></polygon>
                    <path d="M12,2 C17.523,2 22,6.477 22,12 C22,14.136 21.33,16.116 20.19,17.74 L17,12 L20,12 C19.9996878,8.19883866 17.3246624,4.92274779 13.6003323,4.16235763 C9.87600225,3.40196748 6.13085202,5.36726197 4.64052344,8.86408172 C3.15019486,12.3609015 4.32624644,16.4235897 7.45408144,18.5835609 C9.83003302,20.2243083 12.8337907,20.4229789 15.3425558,19.2699185 L16.2701964,21.0448742 C14.9451411,21.6710864 13.487851,22.0020756 12,22 C6.477,22 2,17.523 2,12 C2,6.477 6.477,2 12,2 Z" id="Combined-Shape" fill="#FFFFFF" fill-rule="nonzero"></path>
                </g>
            </g>
        </g>
    </g>
</svg>